<?xml version="1.0" encoding="UTF-8" standalone="no"?>
<!DOCTYPE svg PUBLIC "-//W3C//DTD SVG 20010904//EN"
              "http://www.w3.org/TR/2001/REC-SVG-20010904/DTD/svg10.dtd">

<svg xmlns="http://www.w3.org/2000/svg"
     width="569.665mm" height="795.414mm"
     viewBox="0 0 1615 2255">
  <path id="Selection"
        fill="none" stroke="black" stroke-width="1"
        d="M 1037.00,943.00
           C 1037.00,943.00 996.00,950.08 996.00,950.08
             996.00,950.08 924.00,962.42 924.00,962.42
             924.00,962.42 684.00,1003.59 684.00,1003.59
             684.00,1003.59 595.00,1018.92 595.00,1018.92
             595.00,1018.92 576.00,1023.32 576.00,1023.32
             569.15,1024.90 565.44,1024.25 560.65,1031.02
             556.43,1036.98 558.26,1042.55 559.55,1049.00
             559.55,1049.00 563.58,1071.00 563.58,1071.00
             563.58,1071.00 578.26,1153.00 578.26,1153.00
             578.26,1153.00 582.75,1176.00 582.75,1176.00
             582.75,1176.00 612.58,1340.00 612.58,1340.00
             612.58,1340.00 642.39,1504.00 642.39,1504.00
             642.39,1504.00 659.25,1597.00 659.25,1597.00
             659.25,1597.00 664.41,1626.00 664.41,1626.00
             665.04,1629.76 666.35,1639.01 667.98,1642.00
             669.83,1645.37 672.94,1647.63 675.99,1649.82
             678.33,1651.51 681.72,1654.65 684.32,1655.33
             689.82,1656.78 695.04,1654.53 700.00,1652.42
             711.30,1647.62 720.68,1640.11 731.00,1633.71
             740.29,1627.94 753.63,1622.87 756.47,1638.00
             757.68,1644.44 752.18,1651.70 749.00,1657.00
             749.00,1657.00 724.40,1699.00 724.40,1699.00
             724.40,1699.00 669.60,1793.00 669.60,1793.00
             666.43,1798.29 656.69,1816.43 652.82,1819.28
             650.65,1820.86 646.67,1821.89 644.00,1821.85
             638.52,1821.78 634.62,1816.61 631.00,1813.00
             631.00,1813.00 608.00,1791.00 608.00,1791.00
             608.00,1791.00 591.00,1774.00 591.00,1774.00
             588.22,1771.21 584.29,1767.92 583.31,1764.00
             580.57,1753.01 590.13,1746.87 597.00,1740.00
             597.00,1740.00 629.00,1707.00 629.00,1707.00
             636.61,1699.39 642.94,1696.20 643.00,1685.00
             643.00,1685.00 643.00,1649.00 643.00,1649.00
             642.91,1641.57 638.48,1624.08 636.65,1616.00
             636.65,1616.00 623.65,1559.00 623.65,1559.00
             623.65,1559.00 584.65,1385.00 584.65,1385.00
             584.65,1385.00 551.58,1237.00 551.58,1237.00
             551.58,1237.00 511.64,1058.00 511.64,1058.00
             511.64,1058.00 506.89,1039.00 506.89,1039.00
             506.89,1039.00 495.89,990.00 495.89,990.00
             495.89,990.00 474.35,893.00 474.35,893.00
             474.35,893.00 460.34,829.00 460.34,829.00
             460.34,829.00 455.46,807.00 455.46,807.00
             455.46,807.00 454.54,799.00 454.54,799.00
             454.54,799.00 452.05,790.00 452.05,790.00
             452.05,790.00 451.07,783.00 451.07,783.00
             451.07,783.00 447.12,767.00 447.12,767.00
             447.12,767.00 440.42,743.00 440.42,743.00
             440.42,743.00 407.35,595.00 407.35,595.00
             407.35,595.00 395.65,543.00 395.65,543.00
             393.79,534.75 394.50,526.42 386.91,520.65
             385.15,519.30 383.09,518.44 381.00,517.75
             370.95,514.41 363.57,518.59 357.68,527.01
             357.68,527.01 352.70,535.00 352.70,535.00
             352.70,535.00 326.75,566.00 326.75,566.00
             326.75,566.00 298.13,600.00 298.13,600.00
             298.13,600.00 288.83,610.96 288.83,610.96
             288.83,610.96 279.00,620.01 279.00,620.01
             279.00,620.01 266.99,632.62 266.99,632.62
             266.99,632.62 260.00,637.49 260.00,637.49
             260.00,637.49 250.00,644.77 250.00,644.77
             232.61,655.55 208.65,663.68 189.00,669.42
             178.68,672.44 157.32,677.87 147.00,678.00
             147.00,678.00 129.00,678.00 129.00,678.00
             117.64,677.98 110.47,675.34 100.00,671.42
             75.68,662.33 59.55,650.32 45.64,628.00
             38.89,617.18 33.02,603.89 33.00,591.00
             33.00,591.00 33.00,546.00 33.00,546.00
             33.02,530.90 41.82,523.51 50.24,512.00
             50.24,512.00 62.09,493.00 62.09,493.00
             62.09,493.00 69.74,481.00 69.74,481.00
             69.74,481.00 77.48,471.00 77.48,471.00
             81.57,465.17 80.63,463.89 87.09,457.00
             93.99,449.64 100.68,445.75 109.00,440.47
             116.83,435.51 128.96,428.60 138.00,426.67
             142.33,425.74 148.47,425.95 153.00,426.00
             166.00,426.16 178.99,428.79 190.00,436.10
             200.55,443.11 214.74,459.86 218.76,472.00
             221.56,480.47 221.03,502.47 218.16,511.00
             216.71,515.28 210.88,525.40 208.04,529.00
             200.38,538.71 196.81,539.81 186.00,544.42
             167.14,552.47 153.05,552.77 133.00,553.00
             123.70,553.11 118.65,554.27 112.00,561.09
             110.27,562.87 108.64,564.64 107.74,567.00
             106.52,570.19 106.99,584.66 107.00,589.00
             107.01,597.50 109.80,609.94 114.85,616.91
             121.97,626.74 140.91,634.59 153.00,633.91
             172.69,632.79 174.08,630.14 191.00,622.87
             191.00,622.87 212.00,613.55 212.00,613.55
             228.08,605.06 237.28,598.23 252.00,588.36
             252.00,588.36 276.00,572.67 276.00,572.67
             276.00,572.67 297.00,552.00 297.00,552.00
             310.46,538.54 308.42,540.29 319.71,526.17
             322.24,523.00 323.80,521.67 326.08,518.00
             326.08,518.00 340.31,492.00 340.31,492.00
             340.31,492.00 362.26,450.00 362.26,450.00
             362.26,450.00 426.74,327.00 426.74,327.00
             426.74,327.00 450.22,282.00 450.22,282.00
             450.22,282.00 463.45,257.00 463.45,257.00
             463.45,257.00 472.33,244.00 472.33,244.00
             491.37,215.75 514.16,190.18 535.92,164.00
             535.92,164.00 591.83,97.00 591.83,97.00
             591.83,97.00 605.04,81.00 605.04,81.00
             619.28,66.08 641.97,42.14 660.00,33.12
             679.81,23.21 692.07,25.23 713.00,25.00
             713.00,25.00 762.00,25.00 762.00,25.00
             769.61,25.09 784.85,29.23 791.00,33.63
             802.46,41.83 810.83,57.90 810.85,72.00
             810.85,72.00 810.85,92.00 810.85,92.00
             810.85,92.00 808.16,104.00 808.16,104.00
             804.25,133.76 797.57,169.69 773.00,189.63
             762.64,198.03 759.60,198.55 747.00,199.04
             736.92,199.43 733.98,199.27 724.00,197.42
             715.87,195.92 706.15,192.80 700.18,186.82
             692.00,178.63 689.87,166.07 690.00,155.00
             690.13,144.30 695.50,134.49 701.58,126.00
             715.07,107.18 728.96,95.28 753.00,95.00
             753.00,95.00 767.00,95.00 767.00,95.00
             770.63,94.99 776.02,95.22 778.96,93.13
             786.73,88.02 784.83,75.00 778.96,69.39
             769.37,60.63 755.19,59.05 743.00,57.93
             739.95,57.65 738.14,57.12 735.00,57.16
             735.00,57.16 718.00,57.16 718.00,57.16
             711.02,56.99 696.53,58.36 690.00,60.52
             682.28,63.06 656.55,75.20 650.01,79.55
             650.01,79.55 639.00,88.99 639.00,88.99
             629.07,96.84 626.52,97.53 617.17,108.00
             617.17,108.00 585.85,150.00 585.85,150.00
             585.85,150.00 535.63,218.00 535.63,218.00
             535.63,218.00 493.58,275.00 493.58,275.00
             485.60,286.05 476.30,296.45 472.80,310.00
             471.80,313.87 473.39,323.61 473.83,328.00
             473.83,328.00 476.92,360.00 476.92,360.00
             476.92,360.00 488.77,484.91 488.77,484.91
             488.77,484.91 493.85,529.00 493.85,529.00
             493.85,529.00 504.72,612.00 504.72,612.00
             504.72,612.00 531.72,819.00 531.72,819.00
             531.72,819.00 545.85,928.00 545.85,928.00
             545.85,928.00 550.85,966.00 550.85,966.00
             550.85,966.00 554.13,987.00 554.13,987.00
             559.53,1001.61 570.92,996.74 582.00,995.28
             582.00,995.28 660.00,983.58 660.00,983.58
             660.00,983.58 943.00,940.75 943.00,940.75
             943.00,940.75 1013.00,930.00 1013.00,930.00
             1017.92,929.05 1032.52,929.49 1035.06,925.69
             1036.47,923.37 1035.46,919.58 1035.06,917.00
             1035.06,917.00 1032.58,897.00 1032.58,897.00
             1032.58,897.00 1022.42,820.00 1022.42,820.00
             1022.42,820.00 992.72,621.00 992.72,621.00
             992.72,621.00 983.58,561.00 983.58,561.00
             983.58,561.00 979.00,528.00 979.00,528.00
             979.00,528.00 940.00,551.80 940.00,551.80
             936.48,553.91 925.53,560.94 922.04,561.22
             916.91,561.63 915.53,553.82 916.01,550.00
             916.74,544.21 920.35,540.29 923.92,536.00
             923.92,536.00 939.75,517.00 939.75,517.00
             939.75,517.00 1004.41,440.00 1004.41,440.00
             1004.41,440.00 1023.59,417.00 1023.59,417.00
             1025.70,414.48 1029.80,408.95 1033.09,408.37
             1037.94,407.52 1043.85,414.85 1047.00,418.00
             1047.00,418.00 1073.00,443.00 1073.00,443.00
             1075.05,445.04 1082.26,451.93 1083.26,454.00
             1084.67,456.94 1083.03,458.61 1080.94,460.54
             1080.94,460.54 1067.00,471.13 1067.00,471.13
             1067.00,471.13 1022.00,504.37 1022.00,504.37
             1018.75,506.80 1007.88,513.63 1007.32,517.29
             1007.00,519.38 1010.40,532.09 1011.13,535.00
             1011.13,535.00 1020.58,575.00 1020.58,575.00
             1020.58,575.00 1055.65,724.00 1055.65,724.00
             1055.65,724.00 1118.12,988.00 1118.12,988.00
             1118.12,988.00 1205.88,1361.00 1205.88,1361.00
             1205.88,1361.00 1255.65,1572.00 1255.65,1572.00
             1255.65,1572.00 1269.88,1633.00 1269.88,1633.00
             1269.88,1633.00 1278.00,1670.00 1278.00,1670.00
             1278.00,1670.00 1342.00,1613.16 1342.00,1613.16
             1342.00,1613.16 1384.00,1575.92 1384.00,1575.92
             1397.98,1563.05 1423.33,1538.43 1440.00,1531.58
             1449.38,1527.73 1463.84,1525.97 1474.00,1526.03
             1474.00,1526.03 1483.00,1526.03 1483.00,1526.03
             1486.01,1525.80 1487.73,1525.03 1491.00,1525.21
             1503.06,1525.87 1524.04,1533.12 1533.83,1540.10
             1536.99,1542.36 1540.09,1546.91 1542.87,1549.96
             1542.87,1549.96 1554.47,1561.11 1554.47,1561.11
             1562.84,1569.63 1568.95,1573.34 1574.51,1585.00
             1575.94,1588.01 1578.81,1595.80 1579.48,1599.00
             1579.48,1599.00 1583.00,1635.00 1583.00,1635.00
             1583.07,1641.66 1582.65,1656.81 1581.54,1663.00
             1578.76,1678.43 1570.06,1694.78 1561.87,1708.00
             1561.87,1708.00 1549.35,1724.00 1549.35,1724.00
             1536.78,1742.56 1530.22,1754.77 1510.00,1767.20
             1503.43,1771.24 1497.31,1771.44 1490.00,1772.17
             1490.00,1772.17 1475.00,1773.00 1475.00,1773.00
             1465.73,1772.99 1467.33,1772.44 1459.00,1769.88
             1447.58,1766.38 1439.13,1764.01 1432.19,1753.00
             1425.12,1741.80 1425.85,1721.09 1426.00,1708.00
             1426.00,1708.00 1427.53,1689.00 1427.53,1689.00
             1428.58,1684.58 1432.19,1679.06 1434.43,1675.00
             1443.26,1658.95 1455.19,1644.24 1475.00,1644.17
             1477.51,1643.97 1481.63,1643.91 1484.00,1644.17
             1490.53,1645.46 1503.56,1651.85 1509.00,1655.78
             1514.16,1659.51 1523.28,1669.09 1530.00,1668.12
             1541.67,1666.43 1541.99,1650.31 1542.00,1641.00
             1542.01,1632.86 1542.98,1612.58 1540.16,1606.00
             1538.09,1601.18 1529.96,1594.16 1526.09,1590.00
             1511.84,1574.70 1515.97,1579.83 1500.00,1569.46
             1494.88,1566.13 1492.19,1563.16 1486.00,1561.22
             1475.51,1557.94 1444.43,1558.83 1432.00,1559.00
             1423.06,1559.13 1421.05,1562.95 1415.00,1569.00
             1415.00,1569.00 1391.00,1594.00 1391.00,1594.00
             1391.00,1594.00 1364.04,1621.00 1364.04,1621.00
             1364.04,1621.00 1352.00,1634.00 1352.00,1634.00
             1352.00,1634.00 1323.46,1663.00 1323.46,1663.00
             1323.46,1663.00 1299.34,1700.00 1299.34,1700.00
             1299.34,1700.00 1292.69,1710.00 1292.69,1710.00
             1292.69,1710.00 1202.80,1822.00 1202.80,1822.00
             1202.80,1822.00 1187.52,1840.00 1187.52,1840.00
             1187.52,1840.00 1169.86,1865.00 1169.86,1865.00
             1169.86,1865.00 1164.04,1874.91 1164.04,1874.91
             1164.04,1874.91 1157.00,1883.01 1157.00,1883.01
             1157.00,1883.01 1145.96,1904.00 1145.96,1904.00
             1139.20,1913.58 1133.70,1915.53 1127.41,1924.00
             1127.41,1924.00 1090.18,1976.00 1090.18,1976.00
             1090.18,1976.00 1080.62,1991.00 1080.62,1991.00
             1080.62,1991.00 1068.74,2006.00 1068.74,2006.00
             1068.74,2006.00 1056.42,2024.00 1056.42,2024.00
             1056.42,2024.00 979.88,2128.00 979.88,2128.00
             979.88,2128.00 930.83,2192.91 930.83,2192.91
             926.63,2197.23 911.47,2208.64 906.00,2212.59
             894.16,2221.15 881.98,2228.94 868.00,2233.64
             856.78,2237.42 826.60,2242.98 815.00,2243.00
             815.00,2243.00 795.00,2243.00 795.00,2243.00
             780.51,2242.83 771.79,2239.67 760.00,2231.07
             748.99,2223.04 738.97,2207.96 732.47,2196.00
             727.39,2186.65 721.68,2177.35 718.78,2167.00
             718.78,2167.00 717.54,2160.00 717.54,2160.00
             717.54,2160.00 713.71,2136.00 713.71,2136.00
             713.71,2136.00 710.92,2115.00 710.92,2115.00
             710.92,2115.00 710.92,2105.00 710.92,2105.00
             710.92,2105.00 709.04,2087.00 709.04,2087.00
             709.25,2082.93 711.09,2078.11 712.13,2074.00
             717.05,2054.52 720.47,2049.33 726.78,2032.00
             726.78,2032.00 736.37,2009.00 736.37,2009.00
             736.37,2009.00 742.19,1999.00 742.19,1999.00
             742.19,1999.00 758.24,1968.00 758.24,1968.00
             764.40,1958.25 779.38,1938.32 787.09,1930.00
             787.09,1930.00 801.00,1916.91 801.00,1916.91
             816.73,1902.26 827.77,1893.62 847.00,1883.74
             847.00,1883.74 855.00,1879.83 855.00,1879.83
             861.90,1877.42 866.31,1878.38 873.00,1877.91
             879.43,1877.46 880.24,1876.04 889.00,1876.00
             897.67,1875.96 911.79,1876.57 920.00,1878.88
             930.53,1881.84 942.73,1890.80 951.00,1897.87
             960.13,1905.67 970.40,1913.15 975.08,1924.72
             977.51,1930.71 978.07,1938.60 978.00,1945.00
             977.71,1969.76 961.21,1999.45 937.00,2007.64
             937.00,2007.64 926.00,2011.08 926.00,2011.08
             913.73,2012.64 896.53,2006.17 887.28,1998.30
             887.28,1998.30 874.17,1985.91 874.17,1985.91
             867.79,1979.36 863.79,1973.22 854.00,1979.70
             844.90,1985.72 834.18,2001.12 827.35,2010.00
             827.35,2010.00 815.76,2025.96 815.76,2025.96
             811.37,2031.45 809.50,2031.78 805.07,2039.00
             805.07,2039.00 795.32,2062.00 795.32,2062.00
             789.37,2077.66 783.65,2093.99 784.01,2111.00
             784.39,2128.54 788.37,2134.23 796.85,2149.00
             799.90,2154.31 804.06,2161.80 809.01,2165.35
             813.56,2168.62 832.54,2175.93 838.00,2176.57
             838.00,2176.57 854.00,2176.00 854.00,2176.00
             863.25,2175.89 872.20,2173.51 881.00,2171.08
             884.68,2170.06 886.04,2170.60 890.00,2168.60
             904.73,2161.12 917.96,2145.38 929.96,2134.17
             929.96,2134.17 944.82,2120.00 944.82,2120.00
             944.82,2120.00 988.58,2062.00 988.58,2062.00
             988.58,2062.00 1059.66,1966.00 1059.66,1966.00
             1059.66,1966.00 1114.41,1892.00 1114.41,1892.00
             1114.41,1892.00 1147.85,1847.00 1147.85,1847.00
             1147.85,1847.00 1166.35,1822.00 1166.35,1822.00
             1172.89,1813.30 1176.98,1811.08 1177.00,1800.00
             1177.00,1800.00 1177.00,1760.00 1177.00,1760.00
             1176.92,1753.54 1175.15,1747.34 1174.08,1741.00
             1174.08,1741.00 1168.61,1709.00 1168.61,1709.00
             1168.61,1709.00 1155.41,1632.00 1155.41,1632.00
             1155.41,1632.00 1109.25,1362.00 1109.25,1362.00
             1109.25,1362.00 1062.08,1085.00 1062.08,1085.00
             1062.08,1085.00 1047.08,996.00 1047.08,996.00
             1047.08,996.00 1037.00,943.00 1037.00,943.00 Z
           M 576.00,97.00
           C 576.00,97.00 577.00,97.00 577.00,97.00
             577.00,97.00 576.00,98.00 576.00,98.00
             576.00,98.00 576.00,97.00 576.00,97.00 Z
           M 486.00,214.00
           C 486.00,214.00 487.00,214.00 487.00,214.00
             487.00,214.00 486.00,215.00 486.00,215.00
             486.00,215.00 486.00,214.00 486.00,214.00 Z
           M 336.00,563.00
           C 336.00,563.00 337.00,563.00 337.00,563.00
             337.00,563.00 336.00,564.00 336.00,564.00
             336.00,564.00 336.00,563.00 336.00,563.00 Z
           M 1401.00,1552.00
           C 1401.00,1552.00 1402.00,1552.00 1402.00,1552.00
             1402.00,1552.00 1401.00,1553.00 1401.00,1553.00
             1401.00,1553.00 1401.00,1552.00 1401.00,1552.00 Z
           M 1045.00,1738.00
           C 1045.00,1738.00 1046.00,1738.00 1046.00,1738.00
             1046.00,1738.00 1045.00,1739.00 1045.00,1739.00
             1045.00,1739.00 1045.00,1738.00 1045.00,1738.00 Z" />
</svg>
